<svg width="26" height="19" viewBox="0 0 26 19" fill="none" xmlns="http://www.w3.org/2000/svg">
<path d="M25.2944 5.46347V5.4644V12.8973C25.2944 15.5432 23.1887 17.6781 20.6046 17.6781H5.98961C3.41023 17.6781 1.2998 15.5481 1.2998 12.8973V5.4644C1.2998 2.81877 3.41057 0.683594 5.98961 0.683594H20.61C23.1892 0.683594 25.2993 2.81873 25.2944 5.46347ZM10.4734 13.3151L10.4757 13.314L17.313 9.9982L17.0959 9.54779L17.3141 9.99767L17.3138 9.99783C17.8875 9.72055 17.9064 8.89563 17.3295 8.60074C17.329 8.6005 17.3285 8.60025 17.3281 8.6L10.4951 5.07674C10.4944 5.07641 10.4938 5.07609 10.4932 5.07577C9.96817 4.80222 9.36705 5.19845 9.36705 5.7679V12.6103C9.36705 13.1723 9.94311 13.5691 10.4734 13.3151Z" fill="#FF1313" stroke="black"/>
</svg>
